<svg viewBox="0 0 740 310" xmlns="http://www.w3.org/2000/svg" font-family="monospace" font-size="12">
  <defs>
    <marker id="a" markerWidth="10" markerHeight="7" refX="9" refY="3.5" orient="auto">
      <polygon points="0 0,10 3.5,0 7" fill="#555"/>
    </marker>
  </defs>

  <!-- Title -->
  <text x="370" y="22" text-anchor="middle" fill="#2C3E50" font-size="14" font-weight="bold">Zwei Auth-Ebenen in Kubernetes</text>

  <!-- Left: Kunden-Ebene -->
  <rect x="10" y="35" width="340" height="250" rx="10" fill="#e8f5e9" stroke="#27AE60" stroke-width="2"/>
  <text x="180" y="58" text-anchor="middle" fill="#1a6b3a" font-weight="bold" font-size="13">① Anwendungs-Ebene</text>
  <text x="180" y="74" text-anchor="middle" fill="#1a6b3a" font-size="11">(Kunden, Mobile Apps, Browser)</text>

  <rect x="25" y="88" width="90" height="40" rx="6" fill="#4A90D9" stroke="#2C5F8A" stroke-width="2"/>
  <text x="70" y="113" text-anchor="middle" fill="white" font-weight="bold">Kunde /</text>
  <text x="70" y="128" text-anchor="middle" fill="white" font-weight="bold">Mobile App</text>

  <line x1="115" y1="108" x2="160" y2="108" stroke="#555" stroke-width="2" marker-end="url(#a)"/>
  <text x="138" y="102" text-anchor="middle" fill="#E67E22" font-size="10">JWT/OAuth2</text>

  <rect x="160" y="88" width="110" height="40" rx="6" fill="#E67E22" stroke="#9A5A0A" stroke-width="2"/>
  <text x="215" y="108" text-anchor="middle" fill="white" font-weight="bold">Ingress /</text>
  <text x="215" y="123" text-anchor="middle" fill="white" font-weight="bold">Istio Gateway</text>

  <line x1="215" y1="128" x2="215" y2="158" stroke="#555" stroke-width="2" marker-end="url(#a)"/>

  <rect x="160" y="158" width="110" height="40" rx="6" fill="#27AE60" stroke="#1A6B3A" stroke-width="2"/>
  <text x="215" y="178" text-anchor="middle" fill="white" font-weight="bold">Microservices</text>
  <text x="215" y="193" text-anchor="middle" fill="#dff" font-size="10">(Anwendungs-Code)</text>

  <text x="180" y="240" text-anchor="middle" fill="#1a6b3a" font-size="11" font-weight="bold">Identity Provider:</text>
  <text x="180" y="256" text-anchor="middle" fill="#1a6b3a" font-size="11">Keycloak / Auth0 / Cognito</text>
  <text x="180" y="272" text-anchor="middle" fill="#888" font-size="10">→ stellt JWTs für Kunden aus</text>

  <!-- Right: Ops-Ebene -->
  <rect x="390" y="35" width="340" height="250" rx="10" fill="#e8f4fd" stroke="#4A90D9" stroke-width="2"/>
  <text x="560" y="58" text-anchor="middle" fill="#2C5F8A" font-weight="bold" font-size="13">② Kubernetes-Ebene</text>
  <text x="560" y="74" text-anchor="middle" fill="#2C5F8A" font-size="11">(Entwickler, CI/CD, Operatoren)</text>

  <rect x="405" y="88" width="90" height="40" rx="6" fill="#8E44AD" stroke="#5B2B72" stroke-width="2"/>
  <text x="450" y="108" text-anchor="middle" fill="white" font-weight="bold">Entwickler /</text>
  <text x="450" y="123" text-anchor="middle" fill="white" font-weight="bold">CI Pipeline</text>

  <line x1="495" y1="108" x2="545" y2="108" stroke="#555" stroke-width="2" marker-end="url(#a)"/>
  <text x="520" y="102" text-anchor="middle" fill="#4A90D9" font-size="10">kubeconfig</text>

  <rect x="545" y="88" width="120" height="40" rx="6" fill="#264653" stroke="#1a2f38" stroke-width="2"/>
  <text x="605" y="108" text-anchor="middle" fill="white" font-weight="bold">kube-apiserver</text>
  <text x="605" y="123" text-anchor="middle" fill="#aad4e5" font-size="10">kubectl / API-Calls</text>

  <line x1="605" y1="128" x2="605" y2="158" stroke="#555" stroke-width="2" marker-end="url(#a)"/>

  <rect x="545" y="158" width="120" height="40" rx="6" fill="#27AE60" stroke="#1A6B3A" stroke-width="2"/>
  <text x="605" y="178" text-anchor="middle" fill="white" font-weight="bold">RBAC-geschützte</text>
  <text x="605" y="193" text-anchor="middle" fill="#dff" font-size="10">Kubernetes-Ressourcen</text>

  <text x="560" y="240" text-anchor="middle" fill="#2C5F8A" font-size="11" font-weight="bold">Auth-Methoden:</text>
  <text x="560" y="256" text-anchor="middle" fill="#2C5F8A" font-size="11">Zertifikate / OIDC / SA-Token</text>
  <text x="560" y="272" text-anchor="middle" fill="#888" font-size="10">→ ServiceAccount für Workloads</text>
</svg>
