<svg xmlns="http://www.w3.org/2000/svg" viewBox="0 0 820 520" font-family="monospace, sans-serif">

  <!-- Background -->
  <rect width="820" height="520" fill="#f8f9fa" rx="8"/>

  <!-- Title -->
  <text x="410" y="34" text-anchor="middle" font-size="17" font-weight="bold" fill="#1a1a2e">ResourceQuota &amp; LimitRange im Namespace</text>

  <!-- Namespace box -->
  <rect x="20" y="55" width="780" height="435" rx="10" fill="#e8f4f8" stroke="#2980b9" stroke-width="2" stroke-dasharray="8,4"/>
  <text x="40" y="78" font-size="13" font-weight="bold" fill="#2980b9">Namespace: resource-&lt;dein-name&gt;</text>

  <!-- ResourceQuota box -->
  <rect x="40" y="90" width="220" height="175" rx="8" fill="#fef9e7" stroke="#f39c12" stroke-width="2"/>
  <text x="150" y="112" text-anchor="middle" font-size="13" font-weight="bold" fill="#e67e22">ResourceQuota</text>
  <line x1="40" y1="118" x2="260" y2="118" stroke="#f39c12" stroke-width="1"/>
  <text x="55" y="138" font-size="11" fill="#555">requests.cpu:    1</text>
  <text x="55" y="156" font-size="11" fill="#555">requests.memory: 512Mi</text>
  <text x="55" y="174" font-size="11" fill="#555">limits.cpu:      2</text>
  <text x="55" y="192" font-size="11" fill="#555">limits.memory:   1Gi</text>
  <text x="55" y="210" font-size="11" fill="#555">pods:            5</text>
  <text x="55" y="234" font-size="11" font-style="italic" fill="#e67e22">Harte Grenze fuer den</text>
  <text x="55" y="250" font-size="11" font-style="italic" fill="#e67e22">gesamten Namespace</text>

  <!-- LimitRange box -->
  <rect x="290" y="90" width="230" height="175" rx="8" fill="#eafaf1" stroke="#27ae60" stroke-width="2"/>
  <text x="405" y="112" text-anchor="middle" font-size="13" font-weight="bold" fill="#1e8449">LimitRange</text>
  <line x1="290" y1="118" x2="520" y2="118" stroke="#27ae60" stroke-width="1"/>
  <text x="305" y="138" font-size="11" fill="#555">default.cpu:        200m</text>
  <text x="305" y="156" font-size="11" fill="#555">default.memory:     128Mi</text>
  <text x="305" y="174" font-size="11" fill="#555">defaultRequest.cpu: 100m</text>
  <text x="305" y="192" font-size="11" fill="#555">defaultRequest.mem: 64Mi</text>
  <text x="305" y="210" font-size="11" fill="#555">max.cpu:            1</text>
  <text x="305" y="228" font-size="11" fill="#555">max.memory:         512Mi</text>
  <text x="305" y="250" font-size="11" font-style="italic" fill="#1e8449">Defaults pro Container</text>

  <!-- Kubernetes API / Admission box -->
  <rect x="550" y="90" width="225" height="175" rx="8" fill="#f5eef8" stroke="#8e44ad" stroke-width="2"/>
  <text x="662" y="112" text-anchor="middle" font-size="13" font-weight="bold" fill="#7d3c98">Admission Controller</text>
  <line x1="550" y1="118" x2="775" y2="118" stroke="#8e44ad" stroke-width="1"/>
  <text x="565" y="142" font-size="11" fill="#555">1. Pod kommt rein</text>
  <text x="565" y="162" font-size="11" fill="#555">2. Limits fehlen?</text>
  <text x="580" y="178" font-size="11" fill="#27ae60">   + LimitRange: Defaults</text>
  <text x="580" y="194" font-size="11" fill="#555">      werden eingesetzt</text>
  <text x="565" y="214" font-size="11" fill="#555">3. Quota pruefen</text>
  <text x="580" y="230" font-size="11" fill="#e74c3c">   - ueberschritten: DENY</text>
  <text x="580" y="246" font-size="11" fill="#27ae60">   + ok: ALLOW</text>

  <!-- Arrows from ResourceQuota and LimitRange to Admission -->
  <line x1="261" y1="177" x2="548" y2="177" stroke="#aaa" stroke-width="1.5" stroke-dasharray="5,3" marker-end="url(#arr)"/>
  <line x1="521" y1="177" x2="548" y2="177" stroke="#aaa" stroke-width="1.5" stroke-dasharray="5,3"/>

  <!-- Arrow marker -->
  <defs>
    <marker id="arr" markerWidth="8" markerHeight="8" refX="6" refY="3" orient="auto">
      <path d="M0,0 L0,6 L8,3 z" fill="#888"/>
    </marker>
    <marker id="arr2" markerWidth="8" markerHeight="8" refX="6" refY="3" orient="auto">
      <path d="M0,0 L0,6 L8,3 z" fill="#27ae60"/>
    </marker>
    <marker id="arr3" markerWidth="8" markerHeight="8" refX="6" refY="3" orient="auto">
      <path d="M0,0 L0,6 L8,3 z" fill="#e74c3c"/>
    </marker>
  </defs>

  <!-- Pods section -->
  <text x="40" y="305" font-size="12" font-weight="bold" fill="#2c3e50">Laufende Pods (max. 5 laut Quota):</text>

  <!-- Pod 1 -->
  <rect x="40" y="315" width="140" height="100" rx="6" fill="#d6eaf8" stroke="#2980b9" stroke-width="1.5"/>
  <text x="110" y="333" text-anchor="middle" font-size="11" font-weight="bold" fill="#1a5276">Pod 1</text>
  <text x="55" y="351" font-size="10" fill="#333">req.cpu:  100m</text>
  <text x="55" y="365" font-size="10" fill="#333">req.mem:  64Mi</text>
  <text x="55" y="379" font-size="10" fill="#333">lim.cpu:  200m</text>
  <text x="55" y="393" font-size="10" fill="#333">lim.mem:  128Mi</text>

  <!-- Pod 2 -->
  <rect x="200" y="315" width="140" height="100" rx="6" fill="#d6eaf8" stroke="#2980b9" stroke-width="1.5"/>
  <text x="270" y="333" text-anchor="middle" font-size="11" font-weight="bold" fill="#1a5276">Pod 2</text>
  <text x="215" y="351" font-size="10" fill="#333">req.cpu:  100m</text>
  <text x="215" y="365" font-size="10" fill="#333">req.mem:  64Mi</text>
  <text x="215" y="379" font-size="10" fill="#333">lim.cpu:  200m</text>
  <text x="215" y="393" font-size="10" fill="#333">lim.mem:  128Mi</text>

  <!-- Pod 3 -->
  <rect x="360" y="315" width="140" height="100" rx="6" fill="#d6eaf8" stroke="#2980b9" stroke-width="1.5"/>
  <text x="430" y="333" text-anchor="middle" font-size="11" font-weight="bold" fill="#1a5276">Pod 3</text>
  <text x="375" y="351" font-size="10" fill="#333">req.cpu:  100m</text>
  <text x="375" y="365" font-size="10" fill="#333">req.mem:  64Mi</text>
  <text x="375" y="379" font-size="10" fill="#333">lim.cpu:  200m</text>
  <text x="375" y="393" font-size="10" fill="#333">lim.mem:  128Mi</text>

  <!-- Pod blocked -->
  <rect x="550" y="315" width="220" height="100" rx="6" fill="#fadbd8" stroke="#e74c3c" stroke-width="2" stroke-dasharray="6,3"/>
  <text x="660" y="333" text-anchor="middle" font-size="11" font-weight="bold" fill="#922b21">Pod 6 (blockiert)</text>
  <text x="565" y="355" font-size="10" fill="#e74c3c">exceeded quota:</text>
  <text x="565" y="370" font-size="10" fill="#e74c3c">pods=5 at limit</text>
  <text x="565" y="385" font-size="10" fill="#922b21">→ Deployment laeuft</text>
  <text x="565" y="399" font-size="10" fill="#922b21">  nur 5 Pods hoch</text>

  <!-- Quota used bar -->
  <text x="40" y="425" font-size="12" font-weight="bold" fill="#2c3e50">Quota-Verbrauch nach 3 Pods:</text>
  <!-- CPU bar -->
  <text x="40" y="447" font-size="11" fill="#555">requests.cpu</text>
  <rect x="160" y="435" width="300" height="14" rx="3" fill="#ddd"/>
  <rect x="160" y="435" width="90" height="14" rx="3" fill="#3498db"/>
  <text x="468" y="447" font-size="10" fill="#555">300m / 1000m</text>
  <!-- Memory bar -->
  <text x="40" y="470" font-size="11" fill="#555">requests.mem</text>
  <rect x="160" y="458" width="300" height="14" rx="3" fill="#ddd"/>
  <rect x="160" y="458" width="56" height="14" rx="3" fill="#27ae60"/>
  <text x="468" y="470" font-size="10" fill="#555">192Mi / 512Mi</text>
  <!-- pods bar -->
  <text x="40" y="493" font-size="11" fill="#555">pods</text>
  <rect x="160" y="481" width="300" height="14" rx="3" fill="#ddd"/>
  <rect x="160" y="481" width="180" height="14" rx="3" fill="#e67e22"/>
  <text x="468" y="493" font-size="10" fill="#555">3 / 5</text>

</svg>
